<svg width="20" height="20" viewBox="0 0 20 20" fill="none" xmlns="http://www.w3.org/2000/svg">
<path d="M9.99957 0.933594C7.59481 0.933594 5.28862 1.88878 3.58814 3.58912C1.888 5.28945 0.932617 7.59564 0.932617 10.0001C0.932617 12.4045 1.88795 14.7108 3.58814 16.411C5.28847 18.1114 7.59467 19.0665 9.99957 19.0665C12.4041 19.0665 14.7103 18.1114 16.4105 16.411C18.1109 14.7107 19.066 12.4045 19.066 10.0001C19.066 7.59564 18.1109 5.28931 16.4105 3.58912C14.7102 1.88878 12.404 0.933594 9.99957 0.933594ZM11.8221 14.6248C11.2987 15.2605 10.6511 15.7829 9.91919 16.1604C8.91862 16.6788 7.41453 16.5143 7.68315 15.5123L9.32619 9.38041C9.63348 8.23327 8.73358 8.67303 8.1171 9.07926L8.11728 9.07907C7.94206 9.18566 7.7155 9.14901 7.58266 8.99313C7.44967 8.83707 7.44967 8.60771 7.58248 8.45166C8.1061 7.81604 8.75362 7.29356 9.48538 6.91613C10.486 6.3977 11.9901 6.56215 11.7214 7.56418L10.0784 13.6961C9.77109 14.8432 10.671 14.4035 11.2875 13.9972V13.9974C11.4627 13.891 11.6893 13.9275 11.8221 14.0834C11.9551 14.2394 11.9551 14.469 11.8221 14.6248ZM12.4856 4.71359L12.4854 4.71341C12.4222 4.94964 12.2676 5.15091 12.0559 5.27331C11.8443 5.39552 11.5926 5.42863 11.3564 5.36539C11.1203 5.30196 10.9189 5.14757 10.7966 4.93589C10.6744 4.72402 10.6413 4.47253 10.7046 4.23632C10.7678 4.00008 10.9224 3.79882 11.1341 3.6766C11.3458 3.55439 11.5974 3.52128 11.8336 3.58453C12.0697 3.64777 12.2711 3.80235 12.3934 4.01403C12.5156 4.22571 12.5487 4.47738 12.4854 4.71346L12.4856 4.71359Z" fill="#863AAC"/>
</svg>
