<svg width="108" height="310" viewBox="0 0 108 310" fill="none" xmlns="http://www.w3.org/2000/svg">
<rect width="280" height="309.202" rx="10" fill="white"/>
<path d="M25.7669 290.82L50.9459 271.737H76.5666L99.6253 243.782L112.877 260.689L145.124 192.726L185.499 221.351L224.902 151.881L243.985 165.105L254.233 126.771" stroke="#5ABEA6" stroke-width="2" stroke-linecap="round"/>
<path d="M25.7669 290.82L60.5008 243.863L74.2 252.919L113.972 221.222L139.956 177.619L187.328 192.545L234.082 180.973L254.233 170.575" stroke="#387EA1" stroke-width="2" stroke-linecap="round"/>
<path d="M25.7668 289.962L97.0024 215.086L109.818 170.561L164.703 160.556L199.171 179.4L226.658 139.377L254.233 113.029" stroke="#863AAC" stroke-width="2" stroke-linecap="round"/>
<path fill-rule="evenodd" clip-rule="evenodd" d="M31.0128 83.492C33.9101 83.492 36.2588 81.1433 36.2588 78.246C36.2588 75.3487 33.9101 73 31.0128 73C28.1156 73 25.7668 75.3487 25.7668 78.246C25.7668 81.1433 28.1156 83.492 31.0128 83.492Z" fill="#863AAC"/>
<path d="M41.1154 82L44.2114 73.6H45.2794L48.3634 82H47.2954L46.5274 79.84H42.9514L42.1714 82H41.1154ZM43.2514 79.024H46.2274L44.7394 74.872L43.2514 79.024ZM51.9601 82.144C51.3921 82.144 50.8801 82.016 50.4241 81.76C49.9761 81.496 49.6201 81.132 49.3561 80.668C49.1001 80.196 48.9721 79.648 48.9721 79.024C48.9721 78.4 49.1001 77.856 49.3561 77.392C49.6201 76.92 49.9761 76.556 50.4241 76.3C50.8801 76.036 51.3921 75.904 51.9601 75.904C52.6641 75.904 53.2561 76.088 53.7361 76.456C54.2241 76.824 54.5321 77.316 54.6601 77.932H53.6281C53.5481 77.564 53.3521 77.28 53.0401 77.08C52.7281 76.872 52.3641 76.768 51.9481 76.768C51.6121 76.768 51.2961 76.852 51.0001 77.02C50.7041 77.188 50.4641 77.44 50.2801 77.776C50.0961 78.112 50.0041 78.528 50.0041 79.024C50.0041 79.52 50.0961 79.936 50.2801 80.272C50.4641 80.608 50.7041 80.864 51.0001 81.04C51.2961 81.208 51.6121 81.292 51.9481 81.292C52.3641 81.292 52.7281 81.192 53.0401 80.992C53.3521 80.784 53.5481 80.492 53.6281 80.116H54.6601C54.5401 80.716 54.2361 81.204 53.7481 81.58C53.2601 81.956 52.6641 82.144 51.9601 82.144ZM58.8038 82.144C58.2358 82.144 57.7238 82.016 57.2678 81.76C56.8198 81.496 56.4638 81.132 56.1998 80.668C55.9438 80.196 55.8158 79.648 55.8158 79.024C55.8158 78.4 55.9438 77.856 56.1998 77.392C56.4638 76.92 56.8198 76.556 57.2678 76.3C57.7238 76.036 58.2358 75.904 58.8038 75.904C59.5078 75.904 60.0998 76.088 60.5798 76.456C61.0678 76.824 61.3758 77.316 61.5038 77.932H60.4718C60.3918 77.564 60.1958 77.28 59.8838 77.08C59.5718 76.872 59.2078 76.768 58.7918 76.768C58.4558 76.768 58.1398 76.852 57.8438 77.02C57.5478 77.188 57.3078 77.44 57.1238 77.776C56.9398 78.112 56.8478 78.528 56.8478 79.024C56.8478 79.52 56.9398 79.936 57.1238 80.272C57.3078 80.608 57.5478 80.864 57.8438 81.04C58.1398 81.208 58.4558 81.292 58.7918 81.292C59.2078 81.292 59.5718 81.192 59.8838 80.992C60.1958 80.784 60.3918 80.492 60.4718 80.116H61.5038C61.3838 80.716 61.0798 81.204 60.5918 81.58C60.1038 81.956 59.5078 82.144 58.8038 82.144ZM65.6236 82.144C65.0636 82.144 64.5596 82.016 64.1116 81.76C63.6636 81.504 63.3076 81.144 63.0436 80.68C62.7876 80.208 62.6596 79.656 62.6596 79.024C62.6596 78.392 62.7916 77.844 63.0556 77.38C63.3196 76.908 63.6756 76.544 64.1236 76.288C64.5796 76.032 65.0876 75.904 65.6476 75.904C66.2076 75.904 66.7116 76.032 67.1596 76.288C67.6076 76.544 67.9596 76.908 68.2156 77.38C68.4796 77.844 68.6116 78.392 68.6116 79.024C68.6116 79.656 68.4796 80.208 68.2156 80.68C67.9516 81.144 67.5916 81.504 67.1356 81.76C66.6876 82.016 66.1836 82.144 65.6236 82.144ZM65.6236 81.28C65.9676 81.28 66.2876 81.196 66.5836 81.028C66.8796 80.86 67.1196 80.608 67.3036 80.272C67.4876 79.936 67.5796 79.52 67.5796 79.024C67.5796 78.528 67.4876 78.112 67.3036 77.776C67.1276 77.44 66.8916 77.188 66.5956 77.02C66.2996 76.852 65.9836 76.768 65.6476 76.768C65.3036 76.768 64.9836 76.852 64.6876 77.02C64.3916 77.188 64.1516 77.44 63.9676 77.776C63.7836 78.112 63.6916 78.528 63.6916 79.024C63.6916 79.52 63.7836 79.936 63.9676 80.272C64.1516 80.608 64.3876 80.86 64.6756 81.028C64.9716 81.196 65.2876 81.28 65.6236 81.28ZM72.1851 82.144C71.4811 82.144 70.9211 81.932 70.5051 81.508C70.0891 81.076 69.8811 80.416 69.8811 79.528V76.048H70.8891V79.42C70.8891 80.66 71.3971 81.28 72.4131 81.28C72.9331 81.28 73.3611 81.096 73.6971 80.728C74.0411 80.352 74.2131 79.82 74.2131 79.132V76.048H75.2211V82H74.3091L74.2371 80.932C74.0531 81.308 73.7771 81.604 73.4091 81.82C73.0491 82.036 72.6411 82.144 72.1851 82.144ZM76.8803 82V76.048H77.7923L77.8523 77.116C78.0443 76.74 78.3203 76.444 78.6803 76.228C79.0403 76.012 79.4483 75.904 79.9043 75.904C80.6083 75.904 81.1683 76.12 81.5843 76.552C82.0083 76.976 82.2203 77.632 82.2203 78.52V82H81.2123V78.628C81.2123 77.388 80.7003 76.768 79.6763 76.768C79.1643 76.768 78.7363 76.956 78.3923 77.332C78.0563 77.7 77.8883 78.228 77.8883 78.916V82H76.8803ZM86.0995 82C85.5555 82 85.1275 81.868 84.8155 81.604C84.5035 81.34 84.3475 80.864 84.3475 80.176V76.9H83.3155V76.048H84.3475L84.4795 74.62H85.3555V76.048H87.1075V76.9H85.3555V80.176C85.3555 80.552 85.4315 80.808 85.5835 80.944C85.7355 81.072 86.0035 81.136 86.3875 81.136H87.0115V82H86.0995ZM90.6681 82.144C89.9561 82.144 89.3641 81.964 88.8921 81.604C88.4201 81.244 88.1441 80.756 88.0641 80.14H89.0961C89.1601 80.452 89.3241 80.724 89.5881 80.956C89.8601 81.18 90.2241 81.292 90.6801 81.292C91.1041 81.292 91.4161 81.204 91.6161 81.028C91.8161 80.844 91.9161 80.628 91.9161 80.38C91.9161 80.02 91.7841 79.78 91.5201 79.66C91.2641 79.54 90.9001 79.432 90.4281 79.336C90.1081 79.272 89.7881 79.18 89.4681 79.06C89.1481 78.94 88.8801 78.772 88.6641 78.556C88.4481 78.332 88.3401 78.04 88.3401 77.68C88.3401 77.16 88.5321 76.736 88.9161 76.408C89.3081 76.072 89.8361 75.904 90.5001 75.904C91.1321 75.904 91.6481 76.064 92.0481 76.384C92.4561 76.696 92.6921 77.144 92.7561 77.728H91.7601C91.7201 77.424 91.5881 77.188 91.3641 77.02C91.1481 76.844 90.8561 76.756 90.4881 76.756C90.1281 76.756 89.8481 76.832 89.6481 76.984C89.4561 77.136 89.3601 77.336 89.3601 77.584C89.3601 77.824 89.4841 78.012 89.7321 78.148C89.9881 78.284 90.3321 78.4 90.7641 78.496C91.1321 78.576 91.4801 78.676 91.8081 78.796C92.1441 78.908 92.4161 79.08 92.6241 79.312C92.8401 79.536 92.9481 79.864 92.9481 80.296C92.9561 80.832 92.7521 81.276 92.3361 81.628C91.9281 81.972 91.3721 82.144 90.6681 82.144Z" fill="black"/>
<path d="M27.3288 41.4851V26.0851H29.6608V39.6371H36.6568V41.4851H27.3288ZM43.7101 41.7491C42.6394 41.7491 41.6861 41.5144 40.8501 41.0451C40.0287 40.5611 39.3834 39.8938 38.9141 39.0431C38.4447 38.1924 38.2101 37.2024 38.2101 36.0731C38.2101 34.9291 38.4374 33.9244 38.8921 33.0591C39.3614 32.1938 40.0067 31.5191 40.8281 31.0351C41.6641 30.5511 42.6321 30.3091 43.7321 30.3091C44.8027 30.3091 45.7341 30.5511 46.5261 31.0351C47.3181 31.5044 47.9341 32.1351 48.3741 32.9271C48.8141 33.7191 49.0341 34.5918 49.0341 35.5451C49.0341 35.6918 49.0267 35.8531 49.0121 36.0291C49.0121 36.1904 49.0047 36.3738 48.9901 36.5791H40.4981C40.5714 37.6351 40.9161 38.4418 41.5321 38.9991C42.1627 39.5418 42.8887 39.8131 43.7101 39.8131C44.3701 39.8131 44.9201 39.6664 45.3601 39.3731C45.8147 39.0651 46.1521 38.6544 46.3721 38.1411H48.7041C48.4107 39.1678 47.8241 40.0258 46.9441 40.7151C46.0787 41.4044 45.0007 41.7491 43.7101 41.7491ZM43.7101 32.2231C42.9327 32.2231 42.2434 32.4578 41.6421 32.9271C41.0407 33.3818 40.6741 34.0711 40.5421 34.9951H46.7021C46.6581 34.1444 46.3574 33.4698 45.8001 32.9711C45.2427 32.4724 44.5461 32.2231 43.7101 32.2231ZM55.1497 41.7491C54.2257 41.7491 53.4631 41.5951 52.8617 41.2871C52.2604 40.9791 51.8131 40.5758 51.5197 40.0771C51.2264 39.5638 51.0797 39.0064 51.0797 38.4051C51.0797 37.3491 51.4904 36.5131 52.3117 35.8971C53.1331 35.2811 54.3064 34.9731 55.8317 34.9731H58.6917V34.7751C58.6917 33.9244 58.4571 33.2864 57.9877 32.8611C57.5331 32.4358 56.9391 32.2231 56.2057 32.2231C55.5604 32.2231 54.9957 32.3844 54.5117 32.7071C54.0424 33.0151 53.7564 33.4771 53.6537 34.0931H51.3217C51.3951 33.3011 51.6591 32.6264 52.1137 32.0691C52.5831 31.4971 53.1697 31.0644 53.8737 30.7711C54.5924 30.4631 55.3771 30.3091 56.2277 30.3091C57.7531 30.3091 58.9337 30.7124 59.7697 31.5191C60.6057 32.3111 61.0237 33.3964 61.0237 34.7751V41.4851H58.9997L58.8017 39.6151C58.4937 40.2164 58.0464 40.7224 57.4597 41.1331C56.8731 41.5438 56.1031 41.7491 55.1497 41.7491ZM55.6117 39.8571C56.2424 39.8571 56.7704 39.7104 57.1957 39.4171C57.6357 39.1091 57.9731 38.7058 58.2077 38.2071C58.4571 37.7084 58.6111 37.1584 58.6697 36.5571H56.0737C55.1497 36.5571 54.4897 36.7184 54.0937 37.0411C53.7124 37.3638 53.5217 37.7671 53.5217 38.2511C53.5217 38.7498 53.7051 39.1458 54.0717 39.4391C54.4531 39.7178 54.9664 39.8571 55.6117 39.8571ZM68.7148 41.7491C67.6588 41.7491 66.7275 41.4998 65.9208 41.0011C65.1141 40.5024 64.4835 39.8204 64.0288 38.9551C63.5741 38.0898 63.3468 37.1071 63.3468 36.0071C63.3468 34.9071 63.5741 33.9318 64.0288 33.0811C64.4835 32.2158 65.1141 31.5411 65.9208 31.0571C66.7421 30.5584 67.6808 30.3091 68.7368 30.3091C69.6021 30.3091 70.3575 30.4778 71.0028 30.8151C71.6628 31.1524 72.1761 31.6291 72.5428 32.2451V25.6451H74.8748V41.4851H72.7848L72.5428 39.7911C72.1908 40.3044 71.7068 40.7591 71.0908 41.1551C70.4748 41.5511 69.6828 41.7491 68.7148 41.7491ZM69.1328 39.7251C70.1301 39.7251 70.9441 39.3804 71.5748 38.6911C72.2201 38.0018 72.5428 37.1144 72.5428 36.0291C72.5428 34.9291 72.2201 34.0418 71.5748 33.3671C70.9441 32.6778 70.1301 32.3331 69.1328 32.3331C68.1355 32.3331 67.3141 32.6778 66.6688 33.3671C66.0235 34.0418 65.7008 34.9291 65.7008 36.0291C65.7008 36.7478 65.8475 37.3858 66.1408 37.9431C66.4341 38.5004 66.8375 38.9404 67.3508 39.2631C67.8788 39.5711 68.4728 39.7251 69.1328 39.7251ZM82.1711 41.7491C80.7924 41.7491 79.6557 41.4118 78.7611 40.7371C77.8664 40.0624 77.3531 39.1678 77.2211 38.0531H79.5751C79.6924 38.5518 79.9711 38.9844 80.4111 39.3511C80.8511 39.7031 81.4304 39.8791 82.1491 39.8791C82.8531 39.8791 83.3664 39.7324 83.6891 39.4391C84.0117 39.1458 84.1731 38.8084 84.1731 38.4271C84.1731 37.8698 83.9457 37.4958 83.4911 37.3051C83.0511 37.0998 82.4351 36.9164 81.6431 36.7551C81.0271 36.6231 80.4111 36.4471 79.7951 36.2271C79.1937 36.0071 78.6877 35.6991 78.2771 35.3031C77.8811 34.8924 77.6831 34.3424 77.6831 33.6531C77.6831 32.6998 78.0497 31.9078 78.7831 31.2771C79.5164 30.6318 80.5431 30.3091 81.8631 30.3091C83.0804 30.3091 84.0631 30.6024 84.8111 31.1891C85.5737 31.7758 86.0211 32.6044 86.1531 33.6751H83.9091C83.8357 33.2058 83.6157 32.8391 83.2491 32.5751C82.8971 32.3111 82.4204 32.1791 81.8191 32.1791C81.2324 32.1791 80.7777 32.3038 80.4551 32.5531C80.1324 32.7878 79.9711 33.0958 79.9711 33.4771C79.9711 33.8584 80.1911 34.1591 80.6311 34.3791C81.0857 34.5991 81.6797 34.7971 82.4131 34.9731C83.1464 35.1344 83.8211 35.3251 84.4371 35.5451C85.0677 35.7504 85.5737 36.0584 85.9551 36.4691C86.3364 36.8798 86.5271 37.4811 86.5271 38.2731C86.5417 39.2704 86.1531 40.0991 85.3611 40.7591C84.5837 41.4191 83.5204 41.7491 82.1711 41.7491Z" fill="black"/>
</svg>
