<svg width="26" height="26" viewBox="0 0 26 26" fill="none" xmlns="http://www.w3.org/2000/svg">
<path fill-rule="evenodd" clip-rule="evenodd" d="M20.5833 22.6297C20.5833 23.2941 20.0645 23.8334 19.4226 23.8334C18.7808 23.8334 18.2619 23.2941 18.2619 22.6297C18.2619 19.311 15.6584 16.6111 12.4583 16.6111C9.25825 16.6111 6.65477 19.311 6.65477 22.6297C6.65477 23.2941 6.13593 23.8334 5.49406 23.8334C4.85218 23.8334 4.33334 23.2941 4.33334 22.6297C4.33334 17.9834 7.97915 14.2037 12.4583 14.2037C16.9375 14.2037 20.5833 17.9834 20.5833 22.6297ZM12.4583 4.57409C13.7386 4.57409 14.7798 5.65382 14.7798 6.9815C14.7798 8.30919 13.7386 9.38891 12.4583 9.38891C11.1781 9.38891 10.1369 8.30919 10.1369 6.9815C10.1369 5.65382 11.1781 4.57409 12.4583 4.57409ZM12.4583 11.7963C15.0189 11.7963 17.1012 9.63687 17.1012 6.9815C17.1012 4.32613 15.0189 2.16669 12.4583 2.16669C9.89781 2.16669 7.81549 4.32613 7.81549 6.9815C7.81549 9.63687 9.89781 11.7963 12.4583 11.7963Z" fill="#D0CDCE"/>
</svg>
